name new_emg_signals
nRows=83
nColumns=7
 
endheader
time	LGLTMED	LRF	LADDLONG	LBF	LTA	LGM
2.259999999999952	0.4883895419603706	0.6919849681699539	0.7166872649393928	0.7850891417195246	0.9060305947444874	0.7929284594205285
2.2699999999999516	0.4864591635190923	0.6912261550171798	0.7112107861340552	0.7844744286381452	0.9005149372699199	0.7910819543302087
2.2799999999999514	0.484572138709557	0.6904754558430487	0.7057834798128013	0.7838844370816165	0.8949049892452652	0.7891337796690285
2.289999999999953	0.482728439438452	0.6897349377998887	0.7004094924360497	0.7833193369250915	0.8892072997010876	0.7870837296278814
2.299999999999951	0.4809280620441604	0.6890066007736884	0.6950928812592989	0.7827793593110138	0.8834284456754645	0.7849317974499379
2.3099999999999508	0.4791710300831899	0.6882923713003343	0.6898376090619287	0.7822647959064385	0.8775750202227287	0.7826781803342016
2.3199999999999505	0.4774573969245309	0.6875940968543314	0.6846475391300256	0.7817759978099851	0.8716536206947216	0.7803232837592987
2.3299999999999503	0.4757872481361775	0.6869135405294795	0.6795264304996563	0.781313374102645	0.8656708373181313	0.7778677252003765
2.33999999999995	0.4741607036505001	0.6862523761308348	0.6744779334674534	0.7808773900372278	0.8596332420904091	0.7753123372134508
2.34999999999995	0.4725779196985004	0.6856121836963271	0.6695055853751682	0.7804685648619951	0.8535473780149867	0.7726581698639349
2.3599999999999497	0.4710390905056957	0.684994445464481	0.6646128066739224	0.7800874692755893	0.8474197486948455	0.7699064924798378
2.3699999999999495	0.4695444497443525	0.6844005423027267	0.6598028972730969	0.7797347225129116	0.8412568083013178	0.7670587947156314
2.3799999999999475	0.4680942717378279	0.6838317506085447	0.6550790331782919	0.7794109890653053	0.8350649519331598	0.7641167869188193
2.389999999999949	0.4666888724137291	0.6832892396937192	0.6504442634227464	0.7791169750425166	0.8288505063791707	0.7610823997976064
2.399999999999949	0.4653286100035042	0.6827740696603114	0.6459015072968053	0.7788534241874376	0.8226197212963147	0.757957783392872
2.4099999999999486	0.4640138854871081	0.6822871897758988	0.6414535518797045	0.7786211135567268	0.816378760813989	0.7547453053613565
2.4199999999999484	0.4627451427820092	0.6818294373548266	0.6371030498782351	0.7784208488813841	0.8101336955733377	0.7514475485790038
2.429999999999948	0.4615228686764202	0.6814015371516003	0.632852517776577	0.7782534596213226	0.8038904952086234	0.7480673080745681
2.439999999999948	0.4603475925069218	0.681004101271385	0.6287043343021672	0.778119793727625	0.7976550212755257	0.744607587303796
2.4499999999999478	0.4592198855807582	0.6806376296010767	0.6246607392122377	0.7780207121263024	0.7914330206296979	0.7410715937755618
2.4599999999999476	0.4581403603429366	0.6803025107621603	0.620723832405082	0.7779570829385488	0.785230119257608	0.7374627340427246
2.4699999999999473	0.4571096692878454	0.6799990235844605	0.6168955733588999	0.7779297754548391	0.7790518165608552	0.7337846080721299
2.479999999999949	0.4561285036151469	0.6797273390977459	0.6131777808993849	0.777939653883422	0.7729034800947389	0.7300410030096804
2.4899999999999487	0.4551975916294877	0.6794875230364358	0.6095721332956539	0.7779875708978005	0.7667903407620679	0.726235886357536
2.4999999999999467	0.4543176968839889	0.67927953885079	0.6060801686823963	0.7780743610118911	0.7607174884638774	0.7223733985820255
2.5099999999999465	0.4534896160677978	0.6791032512160099	0.6027032858050447	0.7782008338159823	0.754689868209895	0.7184578451719967
2.5199999999999463	0.4527141766389754	0.6789584300284226	0.5994427450830067	0.7783677671099987	0.7487122766916757	0.7144936881682754
2.529999999999946	0.4519922342058568	0.6788447548756873	0.5962996699846639	0.7785758999726142	0.7427893593208025	0.7104855371855181
2.539999999999946	0.4513246696620294	0.6787618199658207	0.593275048705949	0.7788259258049345	0.7369256077329178	0.7064381399482909
2.549999999999944	0.4507123860827831	0.6787091394975573	0.5903697361424948	0.7791184853872551	0.7311253577566773	0.7023563723651004
2.5599999999999437	0.450156305393588	0.6786861534522368	0.5875844561436767	0.7794541599871488	0.7253927878452331	0.6982452281661921
2.5699999999999434	0.4496573648237468	0.6786922337850264	0.5849198040349539	0.7798334645572824	0.7197319179666757	0.6941098081335538
2.579999999999945	0.4492165131599083	0.6787266909909303	0.5823762493932682	0.7802568410617421	0.7141466089488918	0.6899553089530451
2.589999999999945	0.4488347068147086	0.6787887810187336	0.579954139058266	0.780724651969664	0.7086405622729155	0.6857870117202618
2.5999999999999446	0.448512905725435	0.6788777125038835	0.5776537003607732	0.7812371739541896	0.7032173203073724	0.681610270134255
2.6099999999999444	0.4482520690972713	0.6789926542890812	0.5754750445486843	0.7817945918333457	0.697880266974882	0.6774304984166774
2.619999999999944	0.4480531510057755	0.6791327431993577	0.5734181703896996	0.7823969927871163	0.6926326288397547	0.6732531589972156
2.629999999999944	0.4479170958745793	0.6792970920363419	0.5714829679305085	0.7830443608826007	0.6874774766047249	0.6690837500078154
2.6399999999999437	0.4478448338462564	0.6794847977544483	0.569669222392313	0.7837365719367417	0.682417727002584	0.664927792628757
2.6499999999999435	0.4478372760665616	0.6796949497796984	0.5679766181832264	0.7844733887435651	0.6774561450666488	0.6607908183291195
2.659999999999945	0.4478953099034388	0.6799266384298027	0.5664047430086602	0.7852544566908622	0.6725953467621975	0.6566783560436368
2.669999999999945	0.4480197941228128	0.6801789633919623	0.5649530920613398	0.7860792997887225	0.6678378019594429	0.6525959193273466
2.6799999999999446	0.4482115540431342	0.6804510422125307	0.5636210722727809	0.7869473171299854	0.6631858377270342	0.6485489935289442
2.6899999999999427	0.4484713766900691	0.6807420187502541	0.562408006608013	0.7878577798000499	0.6586416419238154	0.6445430230232786
2.6999999999999424	0.4488000059721991	0.6810510715425783	0.5613131383852887	0.7888098282507673	0.6542072670649405	0.6405833985426158
2.7099999999999422	0.4491981378982536	0.6813774220322908	0.560335635603542	0.7898024701504809	0.6498846344370235	0.6366754446455225
2.719999999999942	0.4496664158566875	0.6817203425998942	0.5594745952617666	0.7908345787194466	0.6456755384353187	0.6328244073615286
2.729999999999942	0.4502054259786974	0.6820791643457109	0.5587290476560985	0.7919048915572988	0.6415816510940915	0.6290354420492209
2.73999999999994	0.4508156926060219	0.6824532845652902	0.5580979606404316	0.793012009966314	0.6376045267796712	0.6253136015050019
2.7499999999999396	0.4514976738843851	0.6828421738624008	0.5575802438362625	0.7941543987715151	0.6337456070136642	0.6216638243588918
2.7599999999999394	0.452251757502488	0.6832453828460847	0.5571747527772885	0.795330386635724	0.6300062253919224	0.6180909237925284
2.769999999999941	0.4530782565955347	0.68366254836123	0.5568802929749113	0.7965381668653088	0.626387612563021	0.6145995766129343
2.7799999999999407	0.4539774058310288	0.6840933992066226	0.5566956238909609	0.7977757987007663	0.6228909012283989	0.6111943127135312
2.7899999999999405	0.4549493576935056	0.6845377613007296	0.5566194628046682	0.7990412090852997	0.6195171311250912	0.6078795049521681
2.7999999999999403	0.455994178983581	0.6849955622632501	0.5566504885598855	0.8003321949046108	0.6162672539508401	0.6046593594738274
2.80999999999994	0.4571118475453896	0.6854668353878792	0.5567873451786773	0.8016464256911102	0.6131421381909405	0.6015379065041893
2.81999999999994	0.4583022492354656	0.6859517229875486	0.5570286453265302	0.8029814467857979	0.6101425738063656	0.5985189916384926
2.8299999999999397	0.4595651751455784	0.6864504790972703	0.5573729736148206	0.8043346829513306	0.6072692767440385	0.5956062676483358
2.8399999999999395	0.4609003190917092	0.6869634715231435	0.5578188897255794	0.8057034424295832	0.6045228932318708	0.5928031868270922
2.849999999999941	0.4623072753813786	0.6874911832300588	0.5583649313436664	0.8070849214373924	0.6019040038231023	0.5901129938925448
2.859999999999941	0.4637855368708785	0.6880342130653068	0.5590096168804323	0.8084762090939958	0.5994131271566432	0.5875387194629985
2.8699999999999406	0.4653344933233392	0.6885932758198035	0.5597514479732436	0.8098742927744108	0.5970507234035476	0.5850831741210364
2.8799999999999386	0.46695343007727	0.6891692016326469	0.5605889117465286	0.8112760638827026	0.5948171973743913	0.5827489430768927
2.8899999999999384	0.4686415270341819	0.6897629347480344	0.5615204828232302	0.8126783240391716	0.5927129012679602	0.580538381441608
2.899999999999938	0.4703978579727929	0.690375531636783	0.562544625078729	0.8140777916746115	0.5907381370473109	0.5784536101182861
2.909999999999938	0.4722213901963613	0.6910081584968532	0.5636597931332266	0.8154711090234209	0.5888931584352849	0.5764965123183633
2.9199999999999378	0.4741109845188886	0.6916620881486011	0.5648644335814367	0.8168548495057953	0.5871781725271905	0.5746687307082479
2.9299999999999358	0.4760653955950969	0.6923386963413023	0.5661569859617658	0.8182255254864161	0.585593341022389	0.5729716651905287
2.9399999999999356	0.4780832725984563	0.6930394574886335	0.5675358834689151	0.8195795963945939	0.5841387810793011	0.5714064713225887
2.9499999999999353	0.4801631602503871	0.693765939852764	0.5689995534150039	0.8209134771878691	0.5828145658004832	0.5699740593743633
2.959999999999937	0.4823035002027928	0.6945198001991285	0.5705464174441486	0.8222235471382169	0.5816207243575187	0.5686750940253836
2.9699999999999367	0.484502632774667	0.6953027779463229	0.5721748915058525	0.8235061589174564	0.5805572417691904	0.567509994699425
2.9799999999999365	0.4867587990425129	0.6961166888368535	0.573883385592822	0.8247576479558644	0.5796240583500598	0.5664789365331403
2.9899999999999363	0.4890701432831215	0.696963418154781	0.5756703032509535	0.8259743420460222	0.5788210688486498	0.5655818519731598
2.999999999999936	0.4914347157663878	0.6978449135160688	0.5775340408724212	0.8271525711624113	0.5781481212950912	0.5648184329944618
3.009999999999936	0.4938504758946078	0.6987631772583074	0.5794729867863602	0.8282886774657329	0.5776050155775846	0.5641881339312395
3.0199999999999356	0.4963152956835411	0.6997202584593661	0.5814855201653125	0.8293790254590436	0.5771915017668341	0.5636901749098955
3.0299999999999354	0.4988269635789643	0.7007182446192266	0.5835700097683133	0.8304200122608879	0.5769072782077983	0.5633235458721896
3.039999999999937	0.5013831886009672	0.7017592530440193	0.5857248125427302	0.8314080779583939	0.5767519893989661	0.5630870111746226
3.0499999999999368	0.5039816048066315	0.7028454219746346	0.5879482721075947	0.8323397160019168	0.5767252236805572	0.5629791147484084
3.0599999999999365	0.5066197760600333	0.7039789015038787	0.5902387171415849	0.8332114836014987	0.5768265107545393	0.5629981858025865
3.0699999999999346	0.5092952010970416	0.7051618443263086	0.5925944596989713	0.8340200120845889	0.5770553190610319	0.5631423450511005
3.0799999999999343	0.5120053188709454	0.7063963963640344	0.5950137934773776	0.8347620171729644	0.5774110530372535	0.5634095114429049
